# xmcd
#
# Track frame offsets:
#	150
#	21853
#	37734
#	69794
#	86790
#	120825
#	140806
#	156425
#	187731
#	206406
#	226833
#
# Disc length: 3421 seconds
#
# Revision: 1
# Processed by: cddbd v1.5.2PL0 Copyright (c) Steve Scherf et al.
# Submitted via: EasyCDDAExtractor 16.0.6.1
#
DISCID=820d5b0b
DTITLE=The BluesBones - Voodoo Guitar 
DYEAR=2012
DGENRE=Blues
TTITLE0=The Witchdoctor
TTITLE1=Cruising
TTITLE2=Voodoo Guitar
TTITLE3=Allergic To Work
TTITLE4=She's Got The Devil
TTITLE5=Mr. Highwayman
TTITLE6=Riding Out
TTITLE7=Believe Me
TTITLE8=Depression
TTITLE9=World Starts Bleeding
TTITLE10=Believe Me Symphonic
EXTD=
EXTT0=
EXTT1=
EXTT2=
EXTT3=
EXTT4=
EXTT5=
EXTT6=
EXTT7=
EXTT8=
EXTT9=
EXTT10=
PLAYORDER=
